HIERARCHY
ROOT Hips
{
  OFFSET 48.5708 102.244 -11.6609
  CHANNELS 6 Xposition Yposition Zposition Zrotation Xrotation Yrotation
  JOINT Chest
  {
    OFFSET 1.23234e-007 14.8421 1.27319e-009
    CHANNELS 6 Xposition Yposition Zposition Zrotation Xrotation Yrotation
    JOINT Neck
    {
      OFFSET 0.51659 29.8236 6.51843
      CHANNELS 6 Xposition Yposition Zposition Zrotation Xrotation Yrotation
      JOINT Head
      {
        OFFSET 1.16803e-007 7.47049 6.44171e-007
        CHANNELS 6 Xposition Yposition Zposition Zrotation Xrotation Yrotation
        End Site
        {
          OFFSET -4.32676e-008 16.2908 2.16786e-007
        }
      }
    }
    JOINT LeftCollar
    {
      OFFSET 6.64893 27.3161 3.27471
      CHANNELS 6 Xposition Yposition Zposition Zrotation Xrotation Yrotation
      JOINT LeftUpArm
      {
        OFFSET 10.8584 2.41798 -0.945791
        CHANNELS 6 Xposition Yposition Zposition Zrotation Xrotation Yrotation
        JOINT LeftLowArm
        {
          OFFSET 3.77631 -24.5904 -1.70468
          CHANNELS 6 Xposition Yposition Zposition Zrotation Xrotation Yrotation
          JOINT LeftHand
          {
            OFFSET 1.01026 -21.1231 1.74131
            CHANNELS 6 Xposition Yposition Zposition Zrotation Xrotation Yrotation
            End Site
            {
              OFFSET 1.17583e-006 -9.81266 -2.89439e-008
            }
          }
        }
      }
    }
    JOINT RightCollar
    {
      OFFSET -6.11406 27.2248 4.23427
      CHANNELS 6 Xposition Yposition Zposition Zrotation Xrotation Yrotation
      JOINT RightUpArm
      {
        OFFSET -10.4566 2.3285 -0.910794
        CHANNELS 6 Xposition Yposition Zposition Zrotation Xrotation Yrotation
        JOINT RightLowArm
        {
          OFFSET -3.86856 -25.191 -1.74633
          CHANNELS 6 Xposition Yposition Zposition Zrotation Xrotation Yrotation
          JOINT RightHand
          {
            OFFSET -1.04759 -20.6242 1.75213
            CHANNELS 6 Xposition Yposition Zposition Zrotation Xrotation Yrotation
            End Site
            {
              OFFSET -2.03487e-006 -9.50367 -4.31372e-006
            }
          }
        }
      }
    }
  }
  JOINT LeftUpLeg
  {
    OFFSET 9 -3.38008e-006 -5.22996e-009
    CHANNELS 6 Xposition Yposition Zposition Zrotation Xrotation Yrotation
    JOINT LeftLowLeg
    {
      OFFSET -0.575 -51.431 3.90177
      CHANNELS 6 Xposition Yposition Zposition Zrotation Xrotation Yrotation
      JOINT LeftFoot
      {
        OFFSET 2.13082e-007 -43.5882 -3.90177
        CHANNELS 6 Xposition Yposition Zposition Zrotation Xrotation Yrotation
        End Site
        {
          OFFSET 7.44796e-007 -6.93413 15.0046
        }
      }
    }
  }
  JOINT RightUpLeg
  {
    OFFSET -9 6.86154e-007 -3.19539e-009
    CHANNELS 6 Xposition Yposition Zposition Zrotation Xrotation Yrotation
    JOINT RightLowLeg
    {
      OFFSET 0.575 -51.4311 3.90177
      CHANNELS 6 Xposition Yposition Zposition Zrotation Xrotation Yrotation
      JOINT RightFoot
      {
        OFFSET -7.46079e-007 -43.5882 -3.90177
        CHANNELS 6 Xposition Yposition Zposition Zrotation Xrotation Yrotation
        End Site
        {
          OFFSET 4.66716e-007 -6.93413 15.0046
        }
      }
    }
  }
}
MOTION
Frames:	6
Frame Time:	0.0333333
48.5708 102.244 -11.6609 0.573322 -0.00787504 -0.639623 1.23234e-007 14.8421 1.27319e-009 0.471592 -22.2434 -4.11203 0.51659 29.8236 6.51843 -0.644001 9.65952 -0.369132 1.16803e-007 7.47049 6.44171e-007 -0.120255 0.244678 0.0137429 6.64893 27.3161 3.27471 -2.94784 5.93879 -4.20517 10.8584 2.41798 -0.945791 92.6783 13.3513 31.3101 3.77631 -24.5904 -1.70468 17.3359 -12.6755 -12.3275 1.01026 -21.1231 1.74131 3.29773 6.1198 0.271436 -6.11406 27.2248 4.23427 -1.96452 7.32629 3.42623 -10.4566 2.3285 -0.910794 -92.1398 4.92452 -24.6927 -3.86856 -25.191 -1.74633 -22.0448 -4.3587 30.0712 -1.04759 -20.6242 1.75213 5.30269 3.02215 0.480854 9 -3.38008e-006 -5.22996e-009 0.50253 0.00253747 3.42874 -0.575 -51.431 3.90177 -1.75589 4.08422 -0.571172 2.13082e-007 -43.5882 -3.90177 -0.364824 -1.08023 0.0265268 -9 6.86154e-007 -3.19539e-009 -6.01998 0.85442 -11.0477 0.575 -51.4311 3.90177 0.65003 2.13025 -3.84018 -7.46079e-007 -43.5882 -3.90177 -1.1512 0.318834 0.0988216 
48.5391 102.147 -11.7271 0.474571 0.0603898 -0.638959 1.23234e-007 14.8421 1.27319e-009 0.586469 -22.2977 -4.10742 0.51659 29.8236 6.51843 -0.494596 9.72609 -0.415996 1.16803e-007 7.47049 6.44171e-007 -0.271737 0.24441 0.0565491 6.64893 27.3161 3.27471 -2.94784 5.93879 -4.20517 10.8584 2.41798 -0.945791 92.6943 13.2346 31.568 3.77631 -24.5904 -1.70468 17.4707 -12.7314 -12.6775 1.01026 -21.1231 1.74131 3.17127 6.07315 0.261041 -6.11406 27.2248 4.23427 -1.96452 7.32629 3.42623 -10.4566 2.3285 -0.910794 -92.1355 4.85328 -24.8776 -3.86856 -25.191 -1.74633 -22.104 -4.41803 29.9499 -1.04759 -20.6242 1.75213 5.0129 2.99105 0.456101 9 -3.38008e-006 -5.22996e-009 0.65503 -0.461454 3.5158 -0.575 -51.431 3.90177 -1.82029 4.94239 -1.13668 2.13082e-007 -43.5882 -3.90177 0.17585 -1.86967 -0.0219194 -9 6.86154e-007 -3.19539e-009 -5.85596 1.11355 -10.9551 0.575 -51.4311 3.90177 0.743847 1.44171 -3.93075 -7.46079e-007 -43.5882 -3.90177 -2.12762 -0.678465 0.188761 
48.5435 102.112 -11.9114 0.313665 0.301781 -0.765314 1.23234e-007 14.8421 1.27319e-009 0.905614 -22.5039 -3.93749 0.51659 29.8236 6.51843 -0.552154 9.69652 -0.385033 1.16803e-007 7.47049 6.44171e-007 -0.281615 0.472525 0.065159 6.64893 27.3161 3.27471 -2.94784 5.93879 -4.20517 10.8584 2.41798 -0.945791 92.468 12.903 32.7752 3.77631 -24.5904 -1.70468 18.0272 -12.9644 -14.2762 1.01026 -21.1231 1.74131 3.4329 6.29858 0.286187 -6.11406 27.2248 4.23427 -1.96452 7.32629 3.42623 -10.4566 2.3285 -0.910794 -92.1721 4.82922 -24.8195 -3.86856 -25.191 -1.74633 -22.0965 -4.41324 29.7838 -1.04759 -20.6242 1.75213 4.95533 2.88963 0.46142 9 -3.38008e-006 -5.22996e-009 0.904628 -0.857511 3.52668 -0.575 -51.431 3.90177 -1.99517 5.58473 -3.61085 2.13082e-007 -43.5882 -3.90177 1.5573 -2.8802 -0.132358 -9 6.86154e-007 -3.1954e-009 -5.71499 0.679082 -10.9141 0.575 -51.4311 3.90177 0.762683 1.55709 -3.97876 -7.46079e-007 -43.5882 -3.90177 -2.11058 -0.563581 0.186733 
48.5632 102.108 -11.97 0.358972 0.317003 -0.614535 1.23234e-007 14.8421 1.27319e-009 0.802017 -22.5321 -4.09652 0.51659 29.8236 6.51843 -0.691894 9.6176 -0.369768 1.16803e-007 7.47049 6.44171e-007 -0.270369 0.71837 0.0203841 6.64893 27.3161 3.27471 -2.94784 5.93879 -4.20517 10.8584 2.41798 -0.945791 92.4981 12.8809 32.7421 3.77631 -24.5904 -1.70468 18.0931 -12.9653 -14.7467 1.01026 -21.1231 1.74131 5.86202 6.41165 0.459481 -6.11406 27.2248 4.23427 -1.96452 7.32629 3.42623 -10.4566 2.3285 -0.910794 -92.2259 4.82396 -24.8551 -3.86856 -25.191 -1.74633 -22.1596 -4.4577 30.3921 -1.04759 -20.6242 1.75213 5.57054 2.92835 0.518508 9 -3.38008e-006 -5.22996e-009 0.801427 -0.875552 3.55131 -0.575 -51.431 3.90177 -1.98327 5.12326 -2.32383 2.13082e-007 -43.5882 -3.90177 1.36753 -2.65029 -0.118476 -9 6.86154e-007 -3.1954e-009 -5.784 0.659268 -10.9583 0.575 -51.4311 3.90177 0.773785 1.55571 -4.10173 -7.46079e-007 -43.5882 -3.90177 -2.09243 -0.558696 0.185198 
48.5402 102.115 -12.037 0.332412 0.431263 -0.577931 1.23234e-007 14.8421 1.27319e-009 0.759208 -22.7083 -4.2033 0.51659 29.8236 6.51843 -0.831476 9.77643 -0.233881 1.16803e-007 7.47049 6.44171e-007 -0.154979 0.479823 0.0764262 6.64893 27.3161 3.27471 -2.94784 5.93879 -4.20517 10.8584 2.41798 -0.945791 92.5631 12.9204 32.7257 3.77631 -24.5904 -1.70468 18.1435 -13.0283 -14.3809 1.01026 -21.1231 1.74131 4.39981 6.23396 0.353754 -6.11406 27.2248 4.23427 -1.96452 7.32629 3.42623 -10.4566 2.3285 -0.910794 -92.2756 4.81978 -25.1328 -3.86856 -25.191 -1.74633 -22.4962 -4.60389 32.8148 -1.04759 -20.6242 1.75213 6.43375 2.47646 0.657102 9 -3.38008e-006 -5.22996e-009 0.860448 -1.01531 3.5352 -0.575 -51.431 3.90177 -2.00984 5.23637 -2.93096 2.13082e-007 -43.5882 -3.90177 1.43248 -2.66185 -0.123342 -9 6.86154e-007 -3.1954e-009 -5.7452 0.51672 -10.9381 0.575 -51.4311 3.90177 0.770404 1.55619 -4.15266 -7.46079e-007 -43.5882 -3.90177 -2.03845 -0.482124 0.180861 
48.5366 102.1 -12.0587 0.317 0.414933 -0.691495 1.23234e-007 14.8421 1.27319e-009 0.863169 -22.6922 -4.04798 0.51659 29.8236 6.51843 -0.813015 9.8552 -0.0698607 1.16803e-007 7.47049 6.44171e-007 -0.136375 0.292608 0.242468 6.64893 27.3161 3.27471 -2.94784 5.93879 -4.20517 10.8584 2.41798 -0.945791 92.5624 12.9436 32.714 3.77631 -24.5904 -1.70468 18.1744 -13.0557 -14.1428 1.01026 -21.1231 1.74131 4.46916 6.09472 0.35514 -6.11406 27.2248 4.23427 -1.96452 7.32629 3.42623 -10.4566 2.3285 -0.910794 -92.3431 4.85642 -25.1003 -3.86856 -25.191 -1.74633 -22.4907 -4.62704 32.69 -1.04759 -20.6242 1.75213 6.15145 2.62072 0.611398 9 -3.38008e-006 -5.22996e-009 0.864957 -0.934792 3.54588 -0.575 -51.431 3.90177 -2.00391 5.01211 -2.61681 2.13082e-007 -43.5882 -3.90177 1.50635 -2.63431 -0.129167 -9 6.86154e-007 -3.19541e-009 -5.75551 0.508825 -10.9927 0.575 -51.4311 3.90177 0.870328 1.55617 -3.96068 -7.46079e-007 -43.5882 -3.90177 -2.11757 -0.575973 0.18727 
